<svg width="48" height="48" viewBox="0 0 48 48" fill="none" xmlns="http://www.w3.org/2000/svg">
  <rect width="48" height="48" rx="12" fill="#4F46E5"/>
  <path d="M10 16C10 14.895 10.895 14 12 14H36C37.105 14 38 14.895 38 16V32C38 33.105 37.105 34 36 34H12C10.895 34 10 33.105 10 32V16Z" fill="white" fill-opacity="0.15"/>
  <path d="M10 16L24 25L38 16" stroke="white" stroke-width="2.5" stroke-linecap="round" stroke-linejoin="round"/>
  <path d="M10 16C10 14.895 10.895 14 12 14H36C37.105 14 38 14.895 38 16V32C38 33.105 37.105 34 36 34H12C10.895 34 10 33.105 10 32V16Z" stroke="white" stroke-width="2" stroke-linejoin="round"/>
  <circle cx="35" cy="13" r="7" fill="#10B981"/>
  <path d="M31.5 13L34 15.5L38.5 11" stroke="white" stroke-width="1.8" stroke-linecap="round" stroke-linejoin="round"/>
</svg>
